<?xml version="1.0" encoding="utf-8"?>
<!-- Generator: Adobe Illustrator 27.0.0, SVG Export Plug-In . SVG Version: 6.00 Build 0)  -->
<svg version="1.1" xmlns="http://www.w3.org/2000/svg" xmlns:xlink="http://www.w3.org/1999/xlink" x="0px" y="0px"
	 viewBox="0 0 841.9 595.3" style="enable-background:new 0 0 841.9 595.3;" xml:space="preserve">
<style type="text/css">
	.st0{display:none;}
	.st1{display:inline;fill:none;stroke:#D1D3D4;stroke-width:0.25;stroke-miterlimit:10;}
	.st2{fill:#FCB715;}
	.st3{fill:#0A509F;}
	.st4{fill:#231F20;}
</style>
<g id="Grid" class="st0">
	<line class="st1" x1="121.4" y1="42.8" x2="720.5" y2="42.8"/>
	<line class="st1" x1="121.4" y1="60.8" x2="720.5" y2="60.8"/>
	<line class="st1" x1="121.4" y1="78.8" x2="720.5" y2="78.8"/>
	<line class="st1" x1="121.4" y1="96.8" x2="720.5" y2="96.8"/>
	<line class="st1" x1="121.4" y1="114.8" x2="720.5" y2="114.8"/>
	<line class="st1" x1="121.4" y1="132.8" x2="720.5" y2="132.8"/>
	<line class="st1" x1="121.4" y1="150.8" x2="720.5" y2="150.8"/>
	<line class="st1" x1="121.4" y1="168.8" x2="720.5" y2="168.8"/>
	<line class="st1" x1="121.4" y1="186.8" x2="720.5" y2="186.8"/>
	<line class="st1" x1="121.4" y1="200.3" x2="720.5" y2="200.3"/>
	<line class="st1" x1="121.4" y1="195.8" x2="720.5" y2="195.8"/>
	<line class="st1" x1="121.4" y1="204.8" x2="720.5" y2="204.8"/>
	<line class="st1" x1="121.4" y1="222.8" x2="720.5" y2="222.8"/>
	<line class="st1" x1="121.4" y1="240.8" x2="720.5" y2="240.8"/>
	<line class="st1" x1="121.4" y1="258.8" x2="720.5" y2="258.8"/>
	<line class="st1" x1="121.4" y1="276.8" x2="720.5" y2="276.8"/>
	<line class="st1" x1="121.4" y1="294.8" x2="720.5" y2="294.8"/>
	<line class="st1" x1="121.4" y1="312.8" x2="720.5" y2="312.8"/>
	<line class="st1" x1="121.4" y1="321.8" x2="720.5" y2="321.8"/>
	<line class="st1" x1="121.4" y1="330.8" x2="720.5" y2="330.8"/>
	<line class="st1" x1="121.4" y1="348.8" x2="720.5" y2="348.8"/>
	<line class="st1" x1="121.4" y1="366.8" x2="720.5" y2="366.8"/>
	<line class="st1" x1="121.4" y1="384.8" x2="720.5" y2="384.8"/>
	<line class="st1" x1="121.4" y1="402.8" x2="720.5" y2="402.8"/>
	<line class="st1" x1="121.4" y1="420.8" x2="720.5" y2="420.8"/>
	<line class="st1" x1="121.4" y1="438.8" x2="720.5" y2="438.8"/>
	<line class="st1" x1="121.4" y1="456.8" x2="720.5" y2="456.8"/>
	<line class="st1" x1="121.4" y1="474.8" x2="720.5" y2="474.8"/>
	<line class="st1" x1="121.4" y1="492.8" x2="720.5" y2="492.8"/>
	<line class="st1" x1="121.4" y1="510.8" x2="720.5" y2="510.8"/>
	<line class="st1" x1="121.4" y1="528.8" x2="720.5" y2="528.8"/>
	<line class="st1" x1="121.4" y1="546.8" x2="720.5" y2="546.8"/>
	<line class="st1" x1="129.9" y1="33.6" x2="129.9" y2="561.7"/>
	<line class="st1" x1="147.9" y1="33.6" x2="147.9" y2="561.7"/>
	<line class="st1" x1="165.9" y1="33.6" x2="165.9" y2="561.7"/>
	<line class="st1" x1="183.9" y1="33.6" x2="183.9" y2="561.7"/>
	<line class="st1" x1="201.9" y1="33.6" x2="201.9" y2="561.7"/>
	<line class="st1" x1="219.9" y1="33.6" x2="219.9" y2="561.7"/>
	<line class="st1" x1="237.9" y1="33.6" x2="237.9" y2="561.7"/>
	<line class="st1" x1="255.9" y1="33.6" x2="255.9" y2="561.7"/>
	<line class="st1" x1="273.9" y1="33.6" x2="273.9" y2="561.7"/>
	<line class="st1" x1="291.9" y1="33.6" x2="291.9" y2="561.7"/>
	<line class="st1" x1="309.9" y1="33.6" x2="309.9" y2="561.7"/>
	<line class="st1" x1="327.9" y1="33.6" x2="327.9" y2="561.7"/>
	<line class="st1" x1="345.9" y1="33.6" x2="345.9" y2="561.7"/>
	<line class="st1" x1="363.9" y1="33.6" x2="363.9" y2="561.7"/>
	<line class="st1" x1="381.9" y1="33.6" x2="381.9" y2="561.7"/>
	<line class="st1" x1="399.9" y1="33.6" x2="399.9" y2="561.7"/>
	<line class="st1" x1="417.9" y1="33.6" x2="417.9" y2="561.7"/>
	<line class="st1" x1="435.9" y1="33.6" x2="435.9" y2="561.7"/>
	<line class="st1" x1="453.9" y1="33.6" x2="453.9" y2="561.7"/>
	<line class="st1" x1="471.9" y1="33.6" x2="471.9" y2="561.7"/>
	<line class="st1" x1="489.9" y1="33.6" x2="489.9" y2="561.7"/>
	<line class="st1" x1="507.9" y1="33.6" x2="507.9" y2="561.7"/>
	<line class="st1" x1="525.9" y1="33.6" x2="525.9" y2="561.7"/>
	<line class="st1" x1="543.9" y1="33.6" x2="543.9" y2="561.7"/>
	<line class="st1" x1="561.9" y1="33.6" x2="561.9" y2="561.7"/>
	<line class="st1" x1="579.9" y1="33.6" x2="579.9" y2="561.7"/>
	<line class="st1" x1="597.9" y1="33.6" x2="597.9" y2="561.7"/>
	<line class="st1" x1="615.9" y1="33.6" x2="615.9" y2="561.7"/>
	<line class="st1" x1="633.9" y1="33.6" x2="633.9" y2="561.7"/>
	<line class="st1" x1="651.9" y1="33.6" x2="651.9" y2="561.7"/>
	<line class="st1" x1="669.9" y1="33.6" x2="669.9" y2="561.7"/>
	<line class="st1" x1="687.9" y1="33.6" x2="687.9" y2="561.7"/>
	<line class="st1" x1="705.9" y1="33.6" x2="705.9" y2="561.7"/>
</g>
<g id="Design">
	<g>
		<g>
			<polygon class="st2" points="445.9,203.6 420.9,178.7 396,203.6 383.9,191.5 420.9,154.4 458,191.5 			"/>
			<polygon class="st2" points="445.9,316.9 420.9,292 396,316.9 383.9,304.7 420.9,267.6 458,304.7 			"/>
			<g>
				<polygon class="st3" points="470.8,260.8 445.9,235.8 420.9,260.8 408.8,248.6 445.9,211.5 482.9,248.6 				"/>
				<polygon class="st3" points="371.1,260.8 358.9,248.6 396,211.5 433.1,248.6 420.9,260.8 396,235.8 				"/>
			</g>
		</g>
		<g>
			<g>
				<path class="st4" d="M329.8,331.7h8.1v47.7h-8.1v-37.2v-0.1l-15.5,37.2h-9.2l-15.5-37.2v0.1v37.2h-8.1v-47.7h8.1h4.4l15.7,37.7
					l15.7-37.7H329.8z"/>
				<path class="st4" d="M363,348.8l12.5-17h10.1l-17.5,23.8l-1,1.3v22.5H359v-22.5l-1-1.4l-17.5-23.8h10L363,348.8z"/>
				<path class="st4" d="M433.5,369l15.5-37.2h8.8l-19.9,47.7h-8.9l-19.8-47.7h8.8L433.5,369z"/>
				<path class="st4" d="M468.7,379.4h-8.1v-47.7h8.1V379.4z"/>
				<path class="st4" d="M494.9,380c-0.9,0-1.7,0.1-2.6,0.1c-2.5,0-4.9-0.3-7.1-1c-2.2-0.6-3.9-1.4-5.1-2.2
					c-1.2-0.8-2.4-1.8-3.4-2.8c-1-1.1-1.6-1.8-1.9-2.3c-0.3-0.5-0.5-0.9-0.7-1.2l7.4-3.3l-0.1-0.1c0.1,0.2,0.2,0.4,0.4,0.7
					c0.2,0.3,0.6,0.7,1.3,1.3c0.7,0.6,1.5,1.1,2.3,1.5c0.9,0.4,2.1,0.8,3.6,1.1c1.5,0.3,3.2,0.4,5.1,0.2c1.6-0.1,3.1-0.3,4.3-0.7
					c1.2-0.4,2.1-0.7,2.8-1.1c0.6-0.4,1.1-0.9,1.5-1.4c0.4-0.6,0.7-1,0.7-1.3c0.1-0.3,0.2-0.7,0.3-1.1c0.2-1.3-0.1-2.4-1-3.5
					c-1.7-2-4.9-3.1-9.5-3.1c-3.7,0-7-0.6-9.8-1.7c-2.9-1.1-5.2-2.7-7-4.8c-2.5-2.9-3.3-6.2-2.7-9.7c0.3-1.4,0.7-2.7,1.4-4
					c0.6-1.2,1.6-2.5,2.8-3.7c1.2-1.2,2.9-2.2,5.1-3.1c2.2-0.8,4.7-1.3,7.7-1.6c3-0.2,5.7-0.1,8.2,0.5c2.5,0.6,4.4,1.3,5.9,2.1
					c1.4,0.8,2.7,1.8,3.8,3c1.1,1.2,1.9,2,2.2,2.5c0.3,0.5,0.5,0.9,0.7,1.3l-7.4,3.3l0.1,0.1c-0.1-0.2-0.2-0.4-0.4-0.7
					c-0.2-0.3-0.6-0.7-1.3-1.3c-0.7-0.6-1.5-1.1-2.3-1.5c-0.9-0.4-2.1-0.8-3.6-1.1c-1.5-0.3-3.2-0.3-5.1-0.2
					c-1.6,0.1-3.1,0.4-4.3,0.7c-1.2,0.3-2.2,0.7-2.8,1.1c-0.6,0.4-1.1,0.9-1.5,1.4c-0.4,0.6-0.6,1-0.7,1.3c-0.1,0.3-0.2,0.7-0.2,1.1
					c-0.2,1,0.1,2,1,3c2,2.4,5.5,3.6,10.6,3.6c7.1,0,12.4,2,15.7,6c2.5,3,3.3,6.4,2.7,10.1c-0.3,1.4-0.7,2.7-1.4,4
					c-0.6,1.2-1.6,2.5-2.8,3.7c-1.3,1.2-3,2.2-5.1,3.1C500.4,379.3,497.9,379.8,494.9,380z"/>
				<path class="st4" d="M531.8,331.7h8.9l19.8,47.7h-8.8h-0.7c-1.5-2.5-3.6-4.6-6.2-6.1c-2.6-1.5-5.5-2.2-8.5-2.2
					c-3.1,0-5.9,0.7-8.5,2.2c-2.6,1.5-4.7,3.5-6.2,6.1h-0.7h-8.8h0.1h-0.1c0.2-0.7,0.5-1.4,1-2.2L531.8,331.7z M536.1,362.6
					c3.2,0,6.3,0.6,9.3,1.7l-9.2-22.1l-9.2,22.1C530,363.1,533,362.6,536.1,362.6z"/>
				<path class="st4" d="M372.9,393.2h8.1v47.7h-8.1v-37.2v-0.1l-15.5,37.2h-9.2l-15.5-37.2v0.1v37.2h-8.1v-47.7h8.1h4.4l15.7,37.7
					l15.7-37.7H372.9z"/>
				<path class="st4" d="M403.8,393.2h8.9l19.8,47.7h-8.8H423c-1.5-2.5-3.6-4.6-6.2-6.1c-2.6-1.5-5.5-2.2-8.5-2.2
					c-3.1,0-5.9,0.7-8.5,2.2c-2.6,1.5-4.7,3.5-6.2,6.1h-0.7h-8.8h0.1h-0.1c0.2-0.7,0.5-1.4,1-2.2L403.8,393.2z M408.2,424.1
					c3.2,0,6.3,0.6,9.3,1.7l-9.2-22.1l-9.2,22.1C402,424.7,405.1,424.1,408.2,424.1z"/>
				<path class="st4" d="M473.4,407.1c0,3.1-0.9,5.9-2.8,8.4c-1.9,2.5-4.3,4.1-7.3,4.9l12.9,20.4h-9.5L454.1,421h-10.6v19.9h-8.1
					v-47.7h8.1h16.1c3.8,0,7.1,1.4,9.8,4.1C472,400.1,473.4,403.3,473.4,407.1z M443.4,401.3v11.6h16.1c1.6,0,3-0.6,4.1-1.7
					c1.1-1.1,1.7-2.5,1.7-4.1c0-1.6-0.6-3-1.7-4.1c-1.1-1.1-2.5-1.7-4.1-1.7H443.4z"/>
				<path class="st4" d="M517.1,401.3h-16.5v39.6h-8.1v-39.6h-16.6v-8.1h16.6h8.1h16.5V401.3z"/>
			</g>
		</g>
	</g>
</g>
</svg>
